# xmcd
#
# Track frame offsets: 
#        150
#        16657
#        30843
#        45809
#        56952
#        74351
#        85111
#        100774
#        109802
#        125384
#        140824
#        153814
#        164512
#        175432
#        183626
#        193557
#        205252
#        212323
#        219763
#        229093
#        233286
#        244757
#        253908
#        262786
#        265270
#        269714
#        287669
#        298393
#        304176
#        320286
#
# Disc length: 4421 seconds
#
# Revision: 0
# Processed by: cddbd v1.5.2PL0 Copyright (c) Steve Scherf et al.
# Submitted via: ExactAudioCopyFreeDBPlugin 1.0
#
DISCID=aa11431e
DTITLE=Various Artist - Field Recordings Vol. 9: Georgia, South Carolina, Nor
DTITLE=th Carolina, Virginia, Kentucky (1924-1939)
DYEAR=1998
DGENRE=
TTITLE0=unknown - Boogie Lovin'
TTITLE1=unknown - 30 Days in Jail
TTITLE2=unknown - Ding Dong Ring
TTITLE3=unknown - Hard Times, Hard Times
TTITLE4=unknown - Prison Bound Blues
TTITLE5=unknown - Georgia Chain Gang
TTITLE6=unknown - Shootin' Craps and Gamblin'
TTITLE7=Georgia field hands - Mary Don't You Weep
TTITLE8=unknown - Trouble Ain't Nothin' but a Good Man Feelin' Bad
TTITLE9=unknown - Black Woman
TTITLE10=unknown - Gonna Leave from Georgia
TTITLE11=unknown - Pick and Shovel Captain
TTITLE12=unknown - 6 Months Ain't No Sentence
TTITLE13=unknown - Down in the Chain Gang
TTITLE14=unknown - Nobody Knows My Name
TTITLE15=unknown - I Been Pickin' and Shovelin'
TTITLE16=Hannah Bessellion - Heaven Is a Beautiful Place I Know
TTITLE17=Hannah Bessellion - I've Got Another Building
TTITLE18=Hannah Bessellion - We're Going to Break Bread Together on Ou
TTITLE18=r Knees
TTITLE19=Angie Clark - Rabbit in the Pea Patch
TTITLE20=unidentified group of tobacco workers - Run Sinner, and Hide 
TTITLE20=Your Face (Run, Sinner, Run)
TTITLE21=Belton Reese - Bile Dem Cabbages Down
TTITLE22=Belton Reese - The McKenzie Case
TTITLE23=Arthur Anderson - If You Want to Make a Preacher Cuss
TTITLE24=Wheeler Bailey and Preston Fulp - Never Let the Deal Go Down
TTITLE25=Uncle John Scruggs - Little Old Log Cabin in the Lane
TTITLE26=Eddie Thomas and Carl Scott - Tomorrow
TTITLE27=Eddit Thomas and Carl Scott - My Ohio Home
TTITLE28=Elder Michaux - Happy I Am
TTITLE29=Whistler's Jug Band - Foldin' Bed
EXTD=
EXTT0=
EXTT1=
EXTT2=
EXTT3=
EXTT4=
EXTT5=
EXTT6=
EXTT7=
EXTT8=
EXTT9=
EXTT10=
EXTT11=
EXTT12=
EXTT13=
EXTT14=
EXTT15=
EXTT16=
EXTT17=
EXTT18=
EXTT19=
EXTT20=
EXTT21=
EXTT22=
EXTT23=
EXTT24=
EXTT25=
EXTT26=
EXTT27=
EXTT28=
EXTT29=
PLAYORDER=
